<svg xmlns="http://www.w3.org/2000/svg" viewBox="0 0 158.51 289.27"><defs><style>.cls-1{fill:#e4ae4f;}</style></defs><g id="Layer_2" data-name="Layer 2"><g id="Layer_1-2" data-name="Layer 1"><path class="cls-1" d="M28,216.23c0-1.76-.11-3.43,0-5.07s-.4-2.47-2.46-2.25c.9-1.4,1.61-2.53,2.34-3.65q11.18-16.94,3.57-35.74c-4.73-11.61-8.9-23.41-10.83-35.83-4.38-28.15.13-54.2,18.74-76.76,7.49-9.09,16.82-15.88,27.06-21.54,1.32-.74,2.63-1.51,3.93-2.28.11-.06.14-.25.47-.94-2.47.7-4.63,1.12-6.64,1.91A75.6,75.6,0,0,0,25,68.37c-7.31,13-10.84,27-11.57,41.85s1.73,29.42,5.76,43.72a1.78,1.78,0,0,1-.15,1.51c-2.09-3.28-4.35-6.46-6.23-9.85C4.32,130.35-.63,114.15.07,96.54A84.16,84.16,0,0,1,1.24,86.17,7.28,7.28,0,0,1,3,82.71c4.41-4.87,9-9.62,13.05-14L4.25,72.3C4.7,71,5,70,5.39,69.1a97.86,97.86,0,0,1,17.43-27,5.31,5.31,0,0,1,2.9-1.45c5.38-.89,10.79-1.63,16.19-2.43.33,0,.65-.13,1.68-.33L32,33.41c5.07-6.06,26.91-16.17,36.32-16.87V27.12C75.43,14.47,85.68,5.57,99.37,0,98.19,4.6,97.13,8.91,96,13.2c-1.5,5.62-3,11.25-4.62,16.85-.47,1.6-.05,2.36,1.35,3.21q13.82,8.34,27.52,16.87a4.4,4.4,0,0,1,2,2.24c2.3,10.07,8.35,18.05,14.38,26,4.7,6.22,9.61,12.3,14.34,18.5a5.29,5.29,0,0,1,1.05,3c-.08,3.64-.32,7.27-.67,10.89a4,4,0,0,1-1.3,2.42q-5.72,5-11.61,9.86a4.71,4.71,0,0,1-2.62,1c-3.86.12-7.73,0-11.6.12a2.58,2.58,0,0,1-2.89-1.89c-.49-1.27-1.21-2.44-1.77-3.69-1.45-3.25-2.87-6.31-6.58-7.92-4.49-1.94-8.84-4.08-13.9-3.29-6.31,1-12.59,1.85-18.84-.59l-.56.4c.63,2.28.84,4.8,2,6.76,2,3.43,4.16,7,7,9.65,6.87,6.39,14.21,12.29,21.35,18.39s13.65,12.69,18.69,20.67c8.53,13.52,10.42,27.83,5.59,43.13-1,3.23-1.06,6.78-1.6,10.55,3.54-.06,6.5.3,8.09,3.12a10.89,10.89,0,0,1,1.42,4.9c.11,4.2-2.55,6.66-8.67,8.06,1,2.63,1.61,5.49,3.16,7.65a112.92,112.92,0,0,0,11.1,13.73c2.71,2.77,4.32,5.42,3.83,9.29a41.53,41.53,0,0,0,0,4.88h-69l0,.47c3.81.27,7.63.63,11.44.8q25.68,1.1,51.35,2.08c4.56.16,8.27,2.71,12.43,4a1.34,1.34,0,0,1,.62,1.06c.05,4.23,0,8.46,0,12.83H2.57c0-4.35,0-8.65.06-12.94,0-.54.79-1.19,1.37-1.54,2.92-1.75,5.9-3.41,8.84-5.12a4.39,4.39,0,0,0,1.68-1.58H9.39c0-3.43-.14-6.66.09-9.87.06-.87,1.15-1.7,1.86-2.48,3.22-3.52,6.67-6.85,9.63-10.57a48.12,48.12,0,0,0,4.88-8.42A20.28,20.28,0,0,0,27,232.47c-6.35-1.84-8.67-4.31-8.4-8.69C18.88,219.19,21.24,217.23,28,216.23ZM107,208.82c2.28,0,4.84-.06,7.4,0a2.44,2.44,0,0,0,2.61-1.61c6.93-14.18,6.32-28.06-1.49-41.71-4.39-7.65-10.31-14-16.73-19.94Q86.43,134.1,74,122.65s-.21,0-.52.12c.78,1,1.47,2,2.24,2.89,5.22,6.19,10.42,12.41,15.71,18.55s10.63,12.63,14.54,20c4.83,9,7.69,18.54,5.74,28.81C110.66,198.28,108.66,203.39,107,208.82Zm-21.46,13v.94c7.8,0,15.6,0,23.4,0,7.58.06,15.15.24,22.73.29a7.94,7.94,0,0,0,2.37-.81,10.64,10.64,0,0,0-1.05-2.35c-1.43-1.86-3.5-2.21-5.7-2.21q-43.41.16-86.81.33c-1.72,0-4.23,0-4.2,2s2.55,1.83,4.26,1.83Zm32-149.15c-2.78-5.3-5.61-10.57-12.49-11.81-2.34-.43-4.53-1.68-6.8-2.53a17.69,17.69,0,0,0-2-.47c2.51,3.53,4.69,6.71,7,9.79a4.54,4.54,0,0,0,2.15,1.5C109.44,70.38,113.48,71.49,117.54,72.66Z"/><path class="cls-1" d="M111.5,16.63c-2.52,6.63-4.94,13-7.46,19.6-3-1.7-5.88-3.29-8.68-5-.31-.19-.41-1.09-.28-1.57,1.1-3.93,2.22-7.85,3.47-11.73a2.28,2.28,0,0,1,1.66-1.26C103.84,16.57,107.47,16.63,111.5,16.63Z"/></g></g></svg>